Coordinates
version=1
nRows=17
nColumns=38
inDegrees=yes

Units are S.I. units (second, meters, Newtons, ...)
Angles are in degrees.

endheader
time	pelvis_tilt	pelvis_list	pelvis_rotation	pelvis_tx	pelvis_ty	pelvis_tz	hip_flexion_r	hip_adduction_r	hip_rotation_r	knee_angle_r	ankle_angle_r	subtalar_angle_r	mtp_angle_r	hip_flexion_l	hip_adduction_l	hip_rotation_l	knee_angle_l	ankle_angle_l	subtalar_angle_l	mtp_angle_l	lumbar_extension	lumbar_bending	lumbar_rotation	arm_flex_r	arm_add_r	arm_rot_r	elbow_flex_r	pro_sup_r	wrist_flex_r	wrist_dev_r	arm_flex_l	arm_add_l	arm_rot_l	elbow_flex_l	pro_sup_l	wrist_flex_l	wrist_dev_l
      4.97000000	     -9.81457973	     -1.06835243	     -2.31400060	      0.03013777	      0.90146410	      2.60708394	     24.59593128	      2.63058089	     -3.94528154	     -7.35680653	     -0.83489526	      0.00000000	      0.00000000	     -0.47957452	     -0.36474401	      3.90237057	    -44.12501978	    -28.06259222	      0.00000000	      0.00000000	      3.80149133	      1.49402193	     -6.74762784	    -29.89452716	    -19.73129265	     10.01505769	    122.04652548	     82.64841652	      0.00000000	      0.00000000	     -0.31224771	    -13.46007152	     19.20640312	    123.08121391	    101.36903998	      0.00000000	      0.00000000
      4.98000000	     -9.57613123	     -1.14837676	     -2.37247003	      0.02964017	      0.89500393	      2.60851043	     24.54735365	      2.86865731	     -3.26677625	     -8.31616910	     -0.65061713	      0.00000000	      0.00000000	      0.77249743	     -0.49318522	      3.57674312	    -48.59161902	    -26.71937560	      0.00000000	      0.00000000	      3.54874390	      1.61849409	     -6.47386097	    -29.32731571	    -19.68042315	     10.27765405	    121.90293430	     83.08499302	      0.00000000	      0.00000000	     -0.25958765	    -13.25479703	     19.53663098	    123.06395901	    101.81362947	      0.00000000	      0.00000000
      4.99000000	     -9.22503412	     -1.37263631	     -2.49478587	      0.02905724	      0.88755895	      2.61023760	     24.52188548	      3.26825640	     -2.45343328	     -9.94228408	     -0.57987531	      0.00000000	      0.00000000	      2.01611494	     -0.87104464	      3.09685384	    -53.21661107	    -25.31019827	      0.00000000	      0.00000000	      3.14906239	      1.86031523	     -6.14350823	    -28.56887491	    -19.66214338	     10.69441266	    121.65600191	     83.48148197	      0.00000000	      0.00000000	     -0.26055504	    -13.07185696	     19.80615961	    123.05698927	    102.16698499	      0.00000000	      0.00000000
      5.00000000	     -8.76865203	     -1.80238394	     -2.69052368	      0.02819397	      0.87917188	      2.61235206	     24.60626438	      3.93319131	     -1.59860094	    -12.49766854	     -0.33953980	      0.00000000	      0.00000000	      3.23407479	     -1.56754976	      2.51650814	    -57.95573915	    -23.79223877	      0.00000000	      0.00000000	      2.54815504	      2.28693443	     -5.73657856	    -27.59982632	    -19.67578228	     11.24878184	    121.29453453	     83.78169321	      0.00000000	      0.00000000	     -0.28908566	    -12.91744012	     20.00391343	    123.06933723	    102.40928754	      0.00000000	      0.00000000
      5.01000000	     -8.18584806	     -2.48178291	     -2.96114678	      0.02666901	      0.87032863	      2.61479959	     24.87208112	      4.96465463	     -0.76767329	    -16.17568769	      0.44207922	      0.00000000	      0.00000000	      4.39861310	     -2.62438211	      1.90286718	    -62.77394664	    -22.13261108	      0.00000000	      0.00000000	      1.65009360	      2.93974869	     -5.23311272	    -26.38857803	    -19.72455339	     11.92953411	    120.79829192	     83.93755779	      0.00000000	      0.00000000	     -0.31299105	    -12.78663066	     20.10748312	    123.09220831	    102.52115691	      0.00000000	      0.00000000
      5.02000000	     -7.42646955	     -3.41364905	     -3.30070941	      0.02453154	      0.86152267	      2.61747208	     25.36644357	      6.38856158	      0.00613680	    -20.92301511	      2.04593334	      0.00000000	      0.00000000	      5.47847660	     -4.02726837	      1.31170743	    -67.65475558	    -20.31715839	      0.00000000	      0.00000000	      0.39371280	      3.79982224	     -4.61692270	    -24.90421068	    -19.80874700	     12.74204638	    120.14154137	     83.92185378	      0.00000000	      0.00000000	     -0.31634195	    -12.66166298	     20.09144004	    123.10518853	    102.48512995	      0.00000000	      0.00000000
      5.03000000	     -6.49434965	     -4.53375754	     -3.70293344	      0.02207421	      0.85257060	      2.62038880	     26.04724949	      8.12223057	      0.71070483	    -26.37370643	      4.50632922	      0.00000000	      0.00000000	      6.48385510	     -5.69132333	      0.76103045	    -72.57168455	    -18.35042636	      0.00000000	      0.00000000	     -1.16034762	      4.78310866	     -3.87443293	    -23.12955536	    -19.92371245	     13.70906533	    119.29281302	     83.73760675	      0.00000000	      0.00000000	     -0.32468547	    -12.51793344	     19.94106680	    123.07817611	    102.29519346	      0.00000000	      0.00000000
      5.04000000	     -5.52491109	     -5.70365120	     -4.17320817	      0.01917455	      0.84313560	      2.62344272	     26.75627523	     10.00487668	      1.34346552	    -31.91845626	      7.58712880	      0.00000000	      0.00000000	      7.52108437	     -7.46822381	      0.23010574	    -77.43116058	    -16.25101084	      0.00000000	      0.00000000	     -2.80305505	      5.77515350	     -3.00035214	    -21.07582638	    -20.06302975	     14.85821091	    118.20678737	     83.41990990	      0.00000000	      0.00000000	     -0.41808828	    -12.33646850	     19.66543318	    122.96559426	    101.96889814	      0.00000000	      0.00000000
      5.05000000	     -4.74842428	     -6.76603521	     -4.72997119	      0.01579700	      0.83358077	      2.62622836	     27.30279227	     11.82508278	      1.90269147	    -36.86298224	     10.89313286	      0.00000000	      0.00000000	      8.77926447	     -9.17274581	     -0.30733706	    -82.04871283	    -14.04693136	      0.00000000	      0.00000000	     -4.24301349	      6.67556620	     -2.01415165	    -18.79367493	    -20.22001203	     16.20334401	    116.82832390	     83.03000559	      0.00000000	      0.00000000	     -0.70994136	    -12.11756088	     19.29787124	    122.70882407	    101.55227936	      0.00000000	      0.00000000
      5.06000000	     -4.37137591	     -7.60910044	     -5.36698906	      0.01255278	      0.82499872	      2.62831274	     27.54728224	     13.34517423	      2.37075792	    -40.64751474	     14.03392406	      0.00000000	      0.00000000	     10.42714333	    -10.62083052	     -0.83628588	    -86.20488579	    -11.77357416	      0.00000000	      0.00000000	     -5.23283550	      7.41128630	     -0.97664796	    -16.36589360	    -20.38159503	     17.72894766	    115.13057795	     82.64502056	      0.00000000	      0.00000000	     -1.28857314	    -11.88748439	     18.87990858	    122.26172241	    101.11033296	      0.00000000	      0.00000000
      5.07000000	     -4.43751773	     -8.17191273	     -5.99230045	      0.00995148	      0.81834622	      2.62954733	     27.40864955	     14.36456275	      2.69956032	    -43.04461924	     16.75110831	      0.00000000	      0.00000000	     12.49926423	    -11.66774830	     -1.27629220	    -89.74396872	     -9.47477148	      0.00000000	      0.00000000	     -5.68184946	      7.92127493	      0.00714293	    -13.88215728	    -20.51866275	     19.38482149	    113.16988148	     82.34599802	      0.00000000	      0.00000000	     -2.15996049	    -11.68961893	     18.44420877	    121.62934849	    100.70455901	      0.00000000	      0.00000000
      5.08000000	     -4.76619247	     -8.42882268	     -6.41841129	      0.00786499	      0.81362235	      2.63011277	     26.84085975	     14.78202197	      2.82271300	    -44.20661171	     18.95926796	      0.00000000	      0.00000000	     14.86593639	    -12.23015008	     -1.50720567	    -92.63066825	     -7.20570330	      0.00000000	      0.00000000	     -5.68790717	      8.15286916	      0.80750051	    -11.41647576	    -20.58725619	     21.09112036	    111.10837604	     82.20486078	      0.00000000	      0.00000000	     -3.24013339	    -11.56435468	     18.01134866	    120.88973712	    100.36885208	      0.00000000	      0.00000000
      5.09000000	     -5.06916090	     -8.38776386	     -6.44682692	      0.00609254	      0.81039580	      2.63019075	     25.82289593	     14.61392061	      2.68959464	    -44.52248692	     20.70412350	      0.00000000	      0.00000000	     17.30918347	    -12.28744456	     -1.43497418	    -94.92121970	     -5.03386505	      0.00000000	      0.00000000	     -5.47094327	      8.08563923	      1.31220357	     -9.02476366	    -20.54745518	     22.75051588	    109.17735727	     82.27114226	      0.00000000	      0.00000000	     -4.40488651	    -11.53624472	     17.59448290	    120.17556706	    100.09804940	      0.00000000	      0.00000000
      5.10000000	     -5.15209725	     -8.09629751	     -5.98661096	      0.00460280	      0.80857229	      2.62974339	     24.37629407	     13.97038149	      2.29794035	    -44.37938282	     22.07914174	      0.00000000	      0.00000000	     19.64760069	    -11.87385152	     -1.05483623	    -96.68292506	     -3.03298457	      0.00000000	      0.00000000	     -5.24697419	      7.75248686	      1.47858261	     -6.75758463	    -20.38573157	     24.26814815	    107.60285626	     82.56225388	      0.00000000	      0.00000000	     -5.55949257	    -11.61533180	     17.20076429	    119.62370738	     99.85546320	      0.00000000	      0.00000000
      5.11000000	     -5.01668506	     -7.63507656	     -5.10911964	      0.00339112	      0.80815359	      2.62870394	     22.59007017	     13.00811021	      1.70837949	    -43.98235192	     23.14849880	      0.00000000	      0.00000000	     21.82182558	    -11.07138007	     -0.46977889	    -97.93253051	     -1.26741680	      0.00000000	      0.00000000	     -5.11621418	      7.23070900	      1.36612909	     -4.66686031	    -20.12367960	     25.57391491	    106.53823823	     83.06167201	      0.00000000	      0.00000000	     -6.67944582	    -11.79925701	     16.82936625	    119.32513758	     99.59317049	      0.00000000	      0.00000000
      5.12000000	     -4.81706523	     -7.07728562	     -4.01256752	      0.00245663	      0.80899426	      2.62714654	     20.60422060	     11.88521310	      1.03140476	    -43.33102610	     23.90567721	      0.00000000	      0.00000000	     23.88622583	    -10.00293620	      0.14871534	    -98.63373861	      0.22823836	      0.00000000	      0.00000000	     -5.03207438	      6.61267524	      1.12252717	     -2.79639300	    -19.80979822	     26.63499489	    106.03394973	     83.72464453	      0.00000000	      0.00000000	     -7.79857341	    -12.06756364	     16.47094409	    119.30309000	     99.27248044	      0.00000000	      0.00000000
      5.13000000	     -4.73834790	     -6.45980862	     -2.93140832	      0.00174742	      0.81101718	      2.62525182	     18.54609746	     10.72509782	      0.39497188	    -42.32941907	     24.27299371	      0.00000000	      0.00000000	     25.92859652	     -8.81146870	      0.62886795	    -98.73658237	      1.46231575	      0.00000000	      0.00000000	     -4.86449136	      5.97438773	      0.92989095	     -1.16523798	    -19.50027711	     27.45285644	    106.04621580	     84.48633110	      0.00000000	      0.00000000	     -8.96120808	    -12.38058976	     16.10796596	    119.52256551	     98.87483045	      0.00000000	      0.00000000
